%TF.GenerationSoftware,KiCad,Pcbnew,9.0.6*%
%TF.CreationDate,2025-11-10T21:37:36-05:00*%
%TF.ProjectId,ButtonMatrix,42757474-6f6e-44d6-9174-7269782e6b69,rev?*%
%TF.SameCoordinates,Original*%
%TF.FileFunction,Copper,L2,Bot*%
%TF.FilePolarity,Positive*%
%FSLAX46Y46*%
G04 Gerber Fmt 4.6, Leading zero omitted, Abs format (unit mm)*
G04 Created by KiCad (PCBNEW 9.0.6) date 2025-11-10 21:37:36*
%MOMM*%
%LPD*%
G01*
G04 APERTURE LIST*
G04 Aperture macros list*
%AMRoundRect*
0 Rectangle with rounded corners*
0 $1 Rounding radius*
0 $2 $3 $4 $5 $6 $7 $8 $9 X,Y pos of 4 corners*
0 Add a 4 corners polygon primitive as box body*
4,1,4,$2,$3,$4,$5,$6,$7,$8,$9,$2,$3,0*
0 Add four circle primitives for the rounded corners*
1,1,$1+$1,$2,$3*
1,1,$1+$1,$4,$5*
1,1,$1+$1,$6,$7*
1,1,$1+$1,$8,$9*
0 Add four rect primitives between the rounded corners*
20,1,$1+$1,$2,$3,$4,$5,0*
20,1,$1+$1,$4,$5,$6,$7,0*
20,1,$1+$1,$6,$7,$8,$9,0*
20,1,$1+$1,$8,$9,$2,$3,0*%
G04 Aperture macros list end*
%TA.AperFunction,ComponentPad*%
%ADD10C,1.200000*%
%TD*%
%TA.AperFunction,ComponentPad*%
%ADD11R,1.800000X1.070000*%
%TD*%
%TA.AperFunction,ComponentPad*%
%ADD12O,1.800000X1.070000*%
%TD*%
%TA.AperFunction,ComponentPad*%
%ADD13C,3.800000*%
%TD*%
%TA.AperFunction,ComponentPad*%
%ADD14RoundRect,0.250000X-0.550000X-0.550000X0.550000X-0.550000X0.550000X0.550000X-0.550000X0.550000X0*%
%TD*%
%TA.AperFunction,ComponentPad*%
%ADD15C,1.600000*%
%TD*%
%TA.AperFunction,ComponentPad*%
%ADD16R,1.700000X1.700000*%
%TD*%
%TA.AperFunction,ComponentPad*%
%ADD17C,1.700000*%
%TD*%
%TA.AperFunction,ViaPad*%
%ADD18C,0.600000*%
%TD*%
%TA.AperFunction,Conductor*%
%ADD19C,0.200000*%
%TD*%
G04 APERTURE END LIST*
D10*
%TO.P,SW1,1,1*%
%TO.N,/SW_ROW1*%
X142875000Y-77175000D03*
%TO.P,SW1,2,2*%
%TO.N,Net-(D1-A)*%
X144925000Y-79600000D03*
%TD*%
D11*
%TO.P,LED10,1,BK*%
%TO.N,/LED_B3*%
X161566666Y-114938332D03*
D12*
%TO.P,LED10,2,GK*%
%TO.N,/LED_G3*%
X161566666Y-113668332D03*
%TO.P,LED10,3,A*%
%TO.N,/LED_COL2*%
X161566666Y-112398332D03*
%TO.P,LED10,4,RK*%
%TO.N,/LED_R3*%
X161566666Y-111128332D03*
%TD*%
D11*
%TO.P,LED11,1,BK*%
%TO.N,/LED_B3*%
X181633332Y-114938332D03*
D12*
%TO.P,LED11,2,GK*%
%TO.N,/LED_G3*%
X181633332Y-113668332D03*
%TO.P,LED11,3,A*%
%TO.N,/LED_COL3*%
X181633332Y-112398332D03*
%TO.P,LED11,4,RK*%
%TO.N,/LED_R3*%
X181633332Y-111128332D03*
%TD*%
D10*
%TO.P,SW14,1,1*%
%TO.N,/SW_ROW4*%
X162941666Y-137375000D03*
%TO.P,SW14,2,2*%
%TO.N,Net-(D14-A)*%
X164991666Y-139800000D03*
%TD*%
D11*
%TO.P,LED13,1,BK*%
%TO.N,/LED_B4*%
X141500000Y-135005000D03*
D12*
%TO.P,LED13,2,GK*%
%TO.N,/LED_G4*%
X141500000Y-133735000D03*
%TO.P,LED13,3,A*%
%TO.N,/LED_COL1*%
X141500000Y-132465000D03*
%TO.P,LED13,4,RK*%
%TO.N,/LED_R4*%
X141500000Y-131195000D03*
%TD*%
D11*
%TO.P,LED9,1,BK*%
%TO.N,/LED_B3*%
X141500000Y-114938332D03*
D12*
%TO.P,LED9,2,GK*%
%TO.N,/LED_G3*%
X141500000Y-113668332D03*
%TO.P,LED9,3,A*%
%TO.N,/LED_COL1*%
X141500000Y-112398332D03*
%TO.P,LED9,4,RK*%
%TO.N,/LED_R3*%
X141500000Y-111128332D03*
%TD*%
D11*
%TO.P,LED7,1,BK*%
%TO.N,/LED_B2*%
X181633332Y-94871666D03*
D12*
%TO.P,LED7,2,GK*%
%TO.N,/LED_G2*%
X181633332Y-93601666D03*
%TO.P,LED7,3,A*%
%TO.N,/LED_COL3*%
X181633332Y-92331666D03*
%TO.P,LED7,4,RK*%
%TO.N,/LED_R2*%
X181633332Y-91061666D03*
%TD*%
D13*
%TO.P,REF\u002A\u002A,1*%
%TO.N,N/C*%
X191666666Y-123066666D03*
%TD*%
D10*
%TO.P,SW3,1,1*%
%TO.N,/SW_ROW1*%
X183008332Y-77175000D03*
%TO.P,SW3,2,2*%
%TO.N,Net-(D3-A)*%
X185058332Y-79600000D03*
%TD*%
D11*
%TO.P,LED4,1,BK*%
%TO.N,/LED_B1*%
X201700000Y-74805000D03*
D12*
%TO.P,LED4,2,GK*%
%TO.N,/LED_G1*%
X201700000Y-73535000D03*
%TO.P,LED4,3,A*%
%TO.N,/LED_COL4*%
X201700000Y-72265000D03*
%TO.P,LED4,4,RK*%
%TO.N,/LED_R1*%
X201700000Y-70995000D03*
%TD*%
D11*
%TO.P,LED1,1,BK*%
%TO.N,/LED_B1*%
X141500000Y-74805000D03*
D12*
%TO.P,LED1,2,GK*%
%TO.N,/LED_G1*%
X141500000Y-73535000D03*
%TO.P,LED1,3,A*%
%TO.N,/LED_COL1*%
X141500000Y-72265000D03*
%TO.P,LED1,4,RK*%
%TO.N,/LED_R1*%
X141500000Y-70995000D03*
%TD*%
D10*
%TO.P,SW2,1,1*%
%TO.N,/SW_ROW1*%
X162941666Y-77175000D03*
%TO.P,SW2,2,2*%
%TO.N,Net-(D2-A)*%
X164991666Y-79600000D03*
%TD*%
D11*
%TO.P,LED6,1,BK*%
%TO.N,/LED_B2*%
X161566666Y-94871666D03*
D12*
%TO.P,LED6,2,GK*%
%TO.N,/LED_G2*%
X161566666Y-93601666D03*
%TO.P,LED6,3,A*%
%TO.N,/LED_COL2*%
X161566666Y-92331666D03*
%TO.P,LED6,4,RK*%
%TO.N,/LED_R2*%
X161566666Y-91061666D03*
%TD*%
D13*
%TO.P,REF\u002A\u002A,1*%
%TO.N,N/C*%
X131500000Y-62900000D03*
%TD*%
D11*
%TO.P,LED2,1,BK*%
%TO.N,/LED_B1*%
X161566666Y-74805000D03*
D12*
%TO.P,LED2,2,GK*%
%TO.N,/LED_G1*%
X161566666Y-73535000D03*
%TO.P,LED2,3,A*%
%TO.N,/LED_COL2*%
X161566666Y-72265000D03*
%TO.P,LED2,4,RK*%
%TO.N,/LED_R1*%
X161566666Y-70995000D03*
%TD*%
D11*
%TO.P,LED8,1,BK*%
%TO.N,/LED_B2*%
X201700000Y-94871666D03*
D12*
%TO.P,LED8,2,GK*%
%TO.N,/LED_G2*%
X201700000Y-93601666D03*
%TO.P,LED8,3,A*%
%TO.N,/LED_COL4*%
X201700000Y-92331666D03*
%TO.P,LED8,4,RK*%
%TO.N,/LED_R2*%
X201700000Y-91061666D03*
%TD*%
D10*
%TO.P,SW10,1,1*%
%TO.N,/SW_ROW3*%
X162941666Y-117308332D03*
%TO.P,SW10,2,2*%
%TO.N,Net-(D10-A)*%
X164991666Y-119733332D03*
%TD*%
D13*
%TO.P,REF\u002A\u002A,1*%
%TO.N,N/C*%
X211700000Y-62900000D03*
%TD*%
%TO.P,REF\u002A\u002A,1*%
%TO.N,N/C*%
X191666666Y-82933333D03*
%TD*%
D10*
%TO.P,SW9,1,1*%
%TO.N,/SW_ROW3*%
X142875000Y-117308332D03*
%TO.P,SW9,2,2*%
%TO.N,Net-(D9-A)*%
X144925000Y-119733332D03*
%TD*%
%TO.P,SW5,1,1*%
%TO.N,/SW_ROW2*%
X142875000Y-97241666D03*
%TO.P,SW5,2,2*%
%TO.N,Net-(D5-A)*%
X144925000Y-99666666D03*
%TD*%
%TO.P,SW13,1,1*%
%TO.N,/SW_ROW4*%
X142875000Y-137375000D03*
%TO.P,SW13,2,2*%
%TO.N,Net-(D13-A)*%
X144925000Y-139800000D03*
%TD*%
D11*
%TO.P,LED16,1,BK*%
%TO.N,/LED_B4*%
X201700000Y-135005000D03*
D12*
%TO.P,LED16,2,GK*%
%TO.N,/LED_G4*%
X201700000Y-133735000D03*
%TO.P,LED16,3,A*%
%TO.N,/LED_COL4*%
X201700000Y-132465000D03*
%TO.P,LED16,4,RK*%
%TO.N,/LED_R4*%
X201700000Y-131195000D03*
%TD*%
D10*
%TO.P,SW16,1,1*%
%TO.N,/SW_ROW4*%
X203075000Y-137375000D03*
%TO.P,SW16,2,2*%
%TO.N,Net-(D16-A)*%
X205125000Y-139800000D03*
%TD*%
%TO.P,SW4,1,1*%
%TO.N,/SW_ROW1*%
X203075000Y-77175000D03*
%TO.P,SW4,2,2*%
%TO.N,Net-(D4-A)*%
X205125000Y-79600000D03*
%TD*%
D11*
%TO.P,LED12,1,BK*%
%TO.N,/LED_B3*%
X201700000Y-114938332D03*
D12*
%TO.P,LED12,2,GK*%
%TO.N,/LED_G3*%
X201700000Y-113668332D03*
%TO.P,LED12,3,A*%
%TO.N,/LED_COL4*%
X201700000Y-112398332D03*
%TO.P,LED12,4,RK*%
%TO.N,/LED_R3*%
X201700000Y-111128332D03*
%TD*%
D13*
%TO.P,REF\u002A\u002A,1*%
%TO.N,N/C*%
X131500000Y-143100000D03*
%TD*%
D10*
%TO.P,SW12,1,1*%
%TO.N,/SW_ROW3*%
X203075000Y-117308332D03*
%TO.P,SW12,2,2*%
%TO.N,Net-(D12-A)*%
X205125000Y-119733332D03*
%TD*%
D11*
%TO.P,LED14,1,BK*%
%TO.N,/LED_B4*%
X161566666Y-135005000D03*
D12*
%TO.P,LED14,2,GK*%
%TO.N,/LED_G4*%
X161566666Y-133735000D03*
%TO.P,LED14,3,A*%
%TO.N,/LED_COL2*%
X161566666Y-132465000D03*
%TO.P,LED14,4,RK*%
%TO.N,/LED_R4*%
X161566666Y-131195000D03*
%TD*%
D11*
%TO.P,LED3,1,BK*%
%TO.N,/LED_B1*%
X181633332Y-74805000D03*
D12*
%TO.P,LED3,2,GK*%
%TO.N,/LED_G1*%
X181633332Y-73535000D03*
%TO.P,LED3,3,A*%
%TO.N,/LED_COL3*%
X181633332Y-72265000D03*
%TO.P,LED3,4,RK*%
%TO.N,/LED_R1*%
X181633332Y-70995000D03*
%TD*%
D10*
%TO.P,SW6,1,1*%
%TO.N,/SW_ROW2*%
X162941666Y-97241666D03*
%TO.P,SW6,2,2*%
%TO.N,Net-(D6-A)*%
X164991666Y-99666666D03*
%TD*%
%TO.P,SW8,1,1*%
%TO.N,/SW_ROW2*%
X203075000Y-97241666D03*
%TO.P,SW8,2,2*%
%TO.N,Net-(D8-A)*%
X205125000Y-99666666D03*
%TD*%
%TO.P,SW11,1,1*%
%TO.N,/SW_ROW3*%
X183008332Y-117308332D03*
%TO.P,SW11,2,2*%
%TO.N,Net-(D11-A)*%
X185058332Y-119733332D03*
%TD*%
D13*
%TO.P,REF\u002A\u002A,1*%
%TO.N,N/C*%
X151533333Y-123066666D03*
%TD*%
%TO.P,REF\u002A\u002A,1*%
%TO.N,N/C*%
X151533333Y-82933333D03*
%TD*%
D11*
%TO.P,LED15,1,BK*%
%TO.N,/LED_B4*%
X181633332Y-135005000D03*
D12*
%TO.P,LED15,2,GK*%
%TO.N,/LED_G4*%
X181633332Y-133735000D03*
%TO.P,LED15,3,A*%
%TO.N,/LED_COL3*%
X181633332Y-132465000D03*
%TO.P,LED15,4,RK*%
%TO.N,/LED_R4*%
X181633332Y-131195000D03*
%TD*%
D11*
%TO.P,LED5,1,BK*%
%TO.N,/LED_B2*%
X141500000Y-94871666D03*
D12*
%TO.P,LED5,2,GK*%
%TO.N,/LED_G2*%
X141500000Y-93601666D03*
%TO.P,LED5,3,A*%
%TO.N,/LED_COL1*%
X141500000Y-92331666D03*
%TO.P,LED5,4,RK*%
%TO.N,/LED_R2*%
X141500000Y-91061666D03*
%TD*%
D10*
%TO.P,SW7,1,1*%
%TO.N,/SW_ROW2*%
X183008332Y-97241666D03*
%TO.P,SW7,2,2*%
%TO.N,Net-(D7-A)*%
X185058332Y-99666666D03*
%TD*%
%TO.P,SW15,1,1*%
%TO.N,/SW_ROW4*%
X183008332Y-137375000D03*
%TO.P,SW15,2,2*%
%TO.N,Net-(D15-A)*%
X185058332Y-139800000D03*
%TD*%
D13*
%TO.P,REF\u002A\u002A,1*%
%TO.N,N/C*%
X211700000Y-143100000D03*
%TD*%
D14*
%TO.P,D14,1,K*%
%TO.N,/SW_COL2*%
X157756666Y-143000000D03*
D15*
%TO.P,D14,2,A*%
%TO.N,Net-(D14-A)*%
X165376666Y-143000000D03*
%TD*%
D16*
%TO.P,REF\u002A\u002A,1*%
%TO.N,N/C*%
X130500000Y-135000000D03*
D17*
%TO.P,REF\u002A\u002A,2*%
X130500000Y-137540000D03*
%TD*%
D14*
%TO.P,D13,1,K*%
%TO.N,/SW_COL1*%
X137690000Y-143000000D03*
D15*
%TO.P,D13,2,A*%
%TO.N,Net-(D13-A)*%
X145310000Y-143000000D03*
%TD*%
D14*
%TO.P,D12,1,K*%
%TO.N,/SW_COL4*%
X197890000Y-123066666D03*
D15*
%TO.P,D12,2,A*%
%TO.N,Net-(D12-A)*%
X205510000Y-123066666D03*
%TD*%
D16*
%TO.P,REF\u002A\u002A,1*%
%TO.N,N/C*%
X212700000Y-71000000D03*
D17*
%TO.P,REF\u002A\u002A,2*%
X212700000Y-73540000D03*
%TD*%
D14*
%TO.P,D4,1,K*%
%TO.N,/SW_COL4*%
X197890000Y-82933333D03*
D15*
%TO.P,D4,2,A*%
%TO.N,Net-(D4-A)*%
X205510000Y-82933333D03*
%TD*%
D14*
%TO.P,D16,1,K*%
%TO.N,/SW_COL4*%
X197890000Y-143000000D03*
D15*
%TO.P,D16,2,A*%
%TO.N,Net-(D16-A)*%
X205510000Y-143000000D03*
%TD*%
D16*
%TO.P,REF\u002A\u002A,1*%
%TO.N,N/C*%
X212700000Y-135000000D03*
D17*
%TO.P,REF\u002A\u002A,2*%
X212700000Y-137540000D03*
%TD*%
D14*
%TO.P,D10,1,K*%
%TO.N,/SW_COL2*%
X157756666Y-123066666D03*
D15*
%TO.P,D10,2,A*%
%TO.N,Net-(D10-A)*%
X165376666Y-123066666D03*
%TD*%
D14*
%TO.P,D2,1,K*%
%TO.N,/SW_COL2*%
X157756666Y-82933333D03*
D15*
%TO.P,D2,2,A*%
%TO.N,Net-(D2-A)*%
X165376666Y-82933333D03*
%TD*%
D14*
%TO.P,D5,1,K*%
%TO.N,/SW_COL1*%
X137690000Y-102999999D03*
D15*
%TO.P,D5,2,A*%
%TO.N,Net-(D5-A)*%
X145310000Y-102999999D03*
%TD*%
D16*
%TO.P,J1,1,Pin_1*%
%TO.N,/SW_ROW1*%
X212700000Y-89030000D03*
D17*
%TO.P,J1,2,Pin_2*%
%TO.N,/SW_ROW2*%
X212700000Y-91570000D03*
%TO.P,J1,3,Pin_3*%
%TO.N,/SW_ROW3*%
X212700000Y-94110000D03*
%TO.P,J1,4,Pin_4*%
%TO.N,/SW_ROW4*%
X212700000Y-96650000D03*
%TO.P,J1,5,Pin_5*%
%TO.N,/SW_COL1*%
X212700000Y-99190000D03*
%TO.P,J1,6,Pin_6*%
%TO.N,/SW_COL2*%
X212700000Y-101730000D03*
%TO.P,J1,7,Pin_7*%
%TO.N,/SW_COL3*%
X212700000Y-104270000D03*
%TO.P,J1,8,Pin_8*%
%TO.N,/SW_COL4*%
X212700000Y-106810000D03*
%TO.P,J1,9,Pin_9*%
%TO.N,/LED_COL1*%
X212700000Y-109350000D03*
%TO.P,J1,10,Pin_10*%
%TO.N,/LED_COL2*%
X212700000Y-111890000D03*
%TO.P,J1,11,Pin_11*%
%TO.N,/LED_COL3*%
X212700000Y-114430000D03*
%TO.P,J1,12,Pin_12*%
%TO.N,/LED_COL4*%
X212700000Y-116970000D03*
%TD*%
D14*
%TO.P,D1,1,K*%
%TO.N,/SW_COL1*%
X137690000Y-82933333D03*
D15*
%TO.P,D1,2,A*%
%TO.N,Net-(D1-A)*%
X145310000Y-82933333D03*
%TD*%
D14*
%TO.P,D7,1,K*%
%TO.N,/SW_COL3*%
X177823332Y-102999999D03*
D15*
%TO.P,D7,2,A*%
%TO.N,Net-(D7-A)*%
X185443332Y-102999999D03*
%TD*%
D14*
%TO.P,D15,1,K*%
%TO.N,/SW_COL3*%
X177823332Y-143000000D03*
D15*
%TO.P,D15,2,A*%
%TO.N,Net-(D15-A)*%
X185443332Y-143000000D03*
%TD*%
D14*
%TO.P,D3,1,K*%
%TO.N,/SW_COL3*%
X177823332Y-82933333D03*
D15*
%TO.P,D3,2,A*%
%TO.N,Net-(D3-A)*%
X185443332Y-82933333D03*
%TD*%
D14*
%TO.P,D6,1,K*%
%TO.N,/SW_COL2*%
X157756666Y-102999999D03*
D15*
%TO.P,D6,2,A*%
%TO.N,Net-(D6-A)*%
X165376666Y-102999999D03*
%TD*%
D14*
%TO.P,D11,1,K*%
%TO.N,/SW_COL3*%
X177823332Y-123066666D03*
D15*
%TO.P,D11,2,A*%
%TO.N,Net-(D11-A)*%
X185443332Y-123066666D03*
%TD*%
D16*
%TO.P,REF\u002A\u002A,1*%
%TO.N,N/C*%
X130500000Y-71000000D03*
D17*
%TO.P,REF\u002A\u002A,2*%
X130500000Y-73540000D03*
%TD*%
D14*
%TO.P,D8,1,K*%
%TO.N,/SW_COL4*%
X197890000Y-102999999D03*
D15*
%TO.P,D8,2,A*%
%TO.N,Net-(D8-A)*%
X205510000Y-102999999D03*
%TD*%
D16*
%TO.P,J2,1,Pin_1*%
%TO.N,/LED_R1*%
X130500000Y-89030000D03*
D17*
%TO.P,J2,2,Pin_2*%
%TO.N,/LED_G1*%
X130500000Y-91570000D03*
%TO.P,J2,3,Pin_3*%
%TO.N,/LED_B1*%
X130500000Y-94110000D03*
%TO.P,J2,4,Pin_4*%
%TO.N,/LED_R2*%
X130500000Y-96650000D03*
%TO.P,J2,5,Pin_5*%
%TO.N,/LED_G2*%
X130500000Y-99190000D03*
%TO.P,J2,6,Pin_6*%
%TO.N,/LED_B2*%
X130500000Y-101730000D03*
%TO.P,J2,7,Pin_7*%
%TO.N,/LED_R3*%
X130500000Y-104270000D03*
%TO.P,J2,8,Pin_8*%
%TO.N,/LED_G3*%
X130500000Y-106810000D03*
%TO.P,J2,9,Pin_9*%
%TO.N,/LED_B3*%
X130500000Y-109350000D03*
%TO.P,J2,10,Pin_10*%
%TO.N,/LED_R4*%
X130500000Y-111890000D03*
%TO.P,J2,11,Pin_11*%
%TO.N,/LED_G4*%
X130500000Y-114430000D03*
%TO.P,J2,12,Pin_12*%
%TO.N,/LED_B4*%
X130500000Y-116970000D03*
%TD*%
D14*
%TO.P,D9,1,K*%
%TO.N,/SW_COL1*%
X137690000Y-123066666D03*
D15*
%TO.P,D9,2,A*%
%TO.N,Net-(D9-A)*%
X145310000Y-123066666D03*
%TD*%
D18*
%TO.N,/SW_COL2*%
X153000000Y-106000000D03*
%TO.N,/SW_COL3*%
X173000000Y-107000000D03*
%TO.N,/SW_COL4*%
X193000000Y-108000000D03*
%TO.N,/SW_ROW3*%
X190000000Y-117308332D03*
X190000000Y-98500000D03*
%TO.N,/SW_ROW4*%
X210000000Y-137375000D03*
X210000000Y-97500000D03*
%TO.N,/LED_COL1*%
X151533333Y-112398332D03*
X151533333Y-132465000D03*
X151533333Y-72265000D03*
X151533333Y-92331666D03*
X151533333Y-129000000D03*
%TO.N,/LED_COL2*%
X171599999Y-129000000D03*
X171599999Y-112398332D03*
X171599999Y-92331666D03*
X171599999Y-72265000D03*
X171599999Y-132465000D03*
%TO.N,/LED_COL3*%
X190666666Y-132465000D03*
X190666666Y-92331666D03*
X190666666Y-72265000D03*
X190666666Y-129000000D03*
X190666666Y-112398332D03*
%TO.N,/LED_COL4*%
X192000000Y-72265000D03*
X192000000Y-92331666D03*
X192000000Y-129000000D03*
X192000000Y-112398332D03*
X192000000Y-132465000D03*
%TD*%
D19*
%TO.N,/SW_COL1*%
X137690000Y-104190000D02*
X137690000Y-102999999D01*
X212700000Y-99190000D02*
X208810000Y-99190000D01*
X138500000Y-105000000D02*
X137690000Y-104190000D01*
X207500000Y-100500000D02*
X207500000Y-104000000D01*
X206500000Y-105000000D02*
X138500000Y-105000000D01*
X207500000Y-104000000D02*
X206500000Y-105000000D01*
X208810000Y-99190000D02*
X207500000Y-100500000D01*
%TO.N,/SW_COL2*%
X209270000Y-101730000D02*
X208500000Y-102500000D01*
X212700000Y-101730000D02*
X209270000Y-101730000D01*
X208500000Y-104500000D02*
X207000000Y-106000000D01*
X208500000Y-102500000D02*
X208500000Y-104500000D01*
X207000000Y-106000000D02*
X153000000Y-106000000D01*
%TO.N,/SW_COL3*%
X207500000Y-107000000D02*
X173000000Y-107000000D01*
X210230000Y-104270000D02*
X207500000Y-107000000D01*
X212700000Y-104270000D02*
X210230000Y-104270000D01*
%TO.N,/SW_COL4*%
X212700000Y-106810000D02*
X209190000Y-106810000D01*
X209190000Y-106810000D02*
X208000000Y-108000000D01*
X208000000Y-108000000D02*
X193000000Y-108000000D01*
%TO.N,/SW_ROW1*%
X142875000Y-77175000D02*
X162941666Y-77175000D01*
X207675000Y-77175000D02*
X203075000Y-77175000D01*
X162941666Y-77175000D02*
X183008332Y-77175000D01*
X212700000Y-89030000D02*
X212700000Y-82200000D01*
X212700000Y-82200000D02*
X207675000Y-77175000D01*
X203075000Y-77175000D02*
X183008332Y-77175000D01*
%TO.N,/SW_ROW2*%
X212700000Y-91570000D02*
X210430000Y-91570000D01*
X204758334Y-97241666D02*
X203075000Y-97241666D01*
X203075000Y-97241666D02*
X183008332Y-97241666D01*
X142875000Y-97241666D02*
X162941666Y-97241666D01*
X210430000Y-91570000D02*
X204758334Y-97241666D01*
X183008332Y-97241666D02*
X162941666Y-97241666D01*
%TO.N,/SW_ROW3*%
X183008332Y-117308332D02*
X162941666Y-117308332D01*
X209390000Y-94110000D02*
X205000000Y-98500000D01*
X190000000Y-98500000D02*
X205000000Y-98500000D01*
X142875000Y-117308332D02*
X162941666Y-117308332D01*
X190000000Y-117308332D02*
X203075000Y-117308332D01*
X212700000Y-94110000D02*
X209390000Y-94110000D01*
X183008332Y-117308332D02*
X190000000Y-117308332D01*
%TO.N,/SW_ROW4*%
X203075000Y-137375000D02*
X183008332Y-137375000D01*
X212700000Y-96650000D02*
X210850000Y-96650000D01*
X210000000Y-137375000D02*
X203075000Y-137375000D01*
X210850000Y-96650000D02*
X210000000Y-97500000D01*
X142875000Y-137375000D02*
X162941666Y-137375000D01*
X162941666Y-137375000D02*
X183008332Y-137375000D01*
%TO.N,/LED_COL1*%
X151533333Y-126500000D02*
X151533333Y-129000000D01*
X189500000Y-121000000D02*
X157033333Y-121000000D01*
X206000000Y-121000000D02*
X194000000Y-121000000D01*
X157033333Y-121000000D02*
X151533333Y-126500000D01*
X207500000Y-110500000D02*
X207500000Y-119500000D01*
X141500000Y-72265000D02*
X151533333Y-72265000D01*
X207500000Y-119500000D02*
X206000000Y-121000000D01*
X212700000Y-109350000D02*
X208650000Y-109350000D01*
X190500000Y-120000000D02*
X189500000Y-121000000D01*
X194000000Y-121000000D02*
X193000000Y-120000000D01*
X141500000Y-132465000D02*
X151533333Y-132465000D01*
X193000000Y-120000000D02*
X190500000Y-120000000D01*
X141500000Y-112398332D02*
X151533333Y-112398332D01*
X208650000Y-109350000D02*
X207500000Y-110500000D01*
X141500000Y-92331666D02*
X151533333Y-92331666D01*
%TO.N,/LED_COL2*%
X173500000Y-125500000D02*
X171599999Y-127400001D01*
X210610000Y-111890000D02*
X209000000Y-113500000D01*
X212700000Y-111890000D02*
X210610000Y-111890000D01*
X209000000Y-113500000D02*
X209000000Y-124000000D01*
X161566666Y-92331666D02*
X171599999Y-92331666D01*
X207500000Y-125500000D02*
X173500000Y-125500000D01*
X161566666Y-112398332D02*
X171599999Y-112398332D01*
X161566666Y-72265000D02*
X171599999Y-72265000D01*
X171599999Y-127400001D02*
X171599999Y-129000000D01*
X161566666Y-132465000D02*
X171599999Y-132465000D01*
X209000000Y-124000000D02*
X207500000Y-125500000D01*
%TO.N,/LED_COL3*%
X181633332Y-132465000D02*
X190666666Y-132465000D01*
X191500000Y-127000000D02*
X190666666Y-127833334D01*
X210500000Y-115000000D02*
X210500000Y-125000000D01*
X181633332Y-112398332D02*
X190666666Y-112398332D01*
X210500000Y-125000000D02*
X208500000Y-127000000D01*
X190666666Y-127833334D02*
X190666666Y-129000000D01*
X211070000Y-114430000D02*
X210500000Y-115000000D01*
X181633332Y-72265000D02*
X190666666Y-72265000D01*
X181633332Y-92331666D02*
X190666666Y-92331666D01*
X212700000Y-114430000D02*
X211070000Y-114430000D01*
X208500000Y-127000000D02*
X191500000Y-127000000D01*
%TO.N,/LED_COL4*%
X209500000Y-129000000D02*
X192000000Y-129000000D01*
X201700000Y-72265000D02*
X192000000Y-72265000D01*
X201700000Y-112398332D02*
X192000000Y-112398332D01*
X201700000Y-132465000D02*
X192000000Y-132465000D01*
X212700000Y-125800000D02*
X209500000Y-129000000D01*
X201700000Y-92331666D02*
X192000000Y-92331666D01*
X212700000Y-116970000D02*
X212700000Y-125800000D01*
%TO.N,/LED_B1*%
X161566666Y-74805000D02*
X141500000Y-74805000D01*
X134000000Y-79000000D02*
X138195000Y-74805000D01*
X161566666Y-74805000D02*
X161662666Y-74901000D01*
X130500000Y-94110000D02*
X132390000Y-94110000D01*
X161662666Y-74901000D02*
X181537332Y-74901000D01*
X138195000Y-74805000D02*
X141500000Y-74805000D01*
X132390000Y-94110000D02*
X134000000Y-92500000D01*
X181537332Y-74901000D02*
X181633332Y-74805000D01*
X134000000Y-92500000D02*
X134000000Y-79000000D01*
X181633332Y-74805000D02*
X201700000Y-74805000D01*
%TO.N,/LED_R1*%
X138005000Y-70995000D02*
X130500000Y-78500000D01*
X201700000Y-70995000D02*
X181633332Y-70995000D01*
X130500000Y-78500000D02*
X130500000Y-89030000D01*
X141500000Y-70995000D02*
X138005000Y-70995000D01*
X181633332Y-70995000D02*
X161566666Y-70995000D01*
X141500000Y-70995000D02*
X161566666Y-70995000D01*
%TO.N,/LED_G1*%
X133000000Y-78000000D02*
X137465000Y-73535000D01*
X137465000Y-73535000D02*
X141500000Y-73535000D01*
X181633332Y-73535000D02*
X161566666Y-73535000D01*
X133000000Y-90500000D02*
X133000000Y-78000000D01*
X141500000Y-73535000D02*
X161566666Y-73535000D01*
X130500000Y-91570000D02*
X131930000Y-91570000D01*
X201700000Y-73535000D02*
X181633332Y-73535000D01*
X131930000Y-91570000D02*
X133000000Y-90500000D01*
%TO.N,/LED_R2*%
X133350000Y-96650000D02*
X138938334Y-91061666D01*
X130500000Y-96650000D02*
X133350000Y-96650000D01*
X161566666Y-91061666D02*
X181633332Y-91061666D01*
X201700000Y-91061666D02*
X181633332Y-91061666D01*
X138938334Y-91061666D02*
X141500000Y-91061666D01*
X141500000Y-91061666D02*
X161566666Y-91061666D01*
%TO.N,/LED_G2*%
X181633332Y-93601666D02*
X201700000Y-93601666D01*
X132810000Y-99190000D02*
X138398334Y-93601666D01*
X138398334Y-93601666D02*
X141500000Y-93601666D01*
X141500000Y-93601666D02*
X161566666Y-93601666D01*
X161566666Y-93601666D02*
X181633332Y-93601666D01*
X130500000Y-99190000D02*
X132810000Y-99190000D01*
%TO.N,/LED_B2*%
X132270000Y-101730000D02*
X139128334Y-94871666D01*
X161566666Y-94871666D02*
X181633332Y-94871666D01*
X130500000Y-101730000D02*
X132270000Y-101730000D01*
X141500000Y-94871666D02*
X161566666Y-94871666D01*
X139128334Y-94871666D02*
X141500000Y-94871666D01*
X201700000Y-94871666D02*
X181633332Y-94871666D01*
%TO.N,/LED_G3*%
X181633332Y-113668332D02*
X161566666Y-113668332D01*
X141500000Y-113668332D02*
X161566666Y-113668332D01*
X130500000Y-106810000D02*
X132810000Y-106810000D01*
X139668332Y-113668332D02*
X141500000Y-113668332D01*
X201700000Y-113668332D02*
X181633332Y-113668332D01*
X132810000Y-106810000D02*
X139668332Y-113668332D01*
%TO.N,/LED_B3*%
X141500000Y-114938332D02*
X161566666Y-114938332D01*
X133850000Y-109350000D02*
X139438332Y-114938332D01*
X130500000Y-109350000D02*
X133850000Y-109350000D01*
X181633332Y-114938332D02*
X161566666Y-114938332D01*
X181633332Y-114938332D02*
X201700000Y-114938332D01*
X139438332Y-114938332D02*
X141500000Y-114938332D01*
%TO.N,/LED_R3*%
X138628332Y-111128332D02*
X141500000Y-111128332D01*
X181633332Y-111128332D02*
X161566666Y-111128332D01*
X131770000Y-104270000D02*
X138628332Y-111128332D01*
X201700000Y-111128332D02*
X181633332Y-111128332D01*
X130500000Y-104270000D02*
X131770000Y-104270000D01*
X141500000Y-111128332D02*
X161566666Y-111128332D01*
%TO.N,/LED_B4*%
X130500000Y-116970000D02*
X130500000Y-131000000D01*
X134505000Y-135005000D02*
X141500000Y-135005000D01*
X161566666Y-135005000D02*
X181633332Y-135005000D01*
X201700000Y-135005000D02*
X181633332Y-135005000D01*
X141500000Y-135005000D02*
X161566666Y-135005000D01*
X130500000Y-131000000D02*
X134505000Y-135005000D01*
%TO.N,/LED_R4*%
X181633332Y-131195000D02*
X161566666Y-131195000D01*
X201700000Y-131195000D02*
X181633332Y-131195000D01*
X134000000Y-113000000D02*
X134000000Y-125500000D01*
X130500000Y-111890000D02*
X132890000Y-111890000D01*
X132890000Y-111890000D02*
X134000000Y-113000000D01*
X139695000Y-131195000D02*
X141500000Y-131195000D01*
X141500000Y-131195000D02*
X161566666Y-131195000D01*
X134000000Y-125500000D02*
X139695000Y-131195000D01*
%TO.N,/LED_G4*%
X201700000Y-133735000D02*
X181633332Y-133735000D01*
X133000000Y-126000000D02*
X133000000Y-115000000D01*
X141500000Y-133735000D02*
X161566666Y-133735000D01*
X133000000Y-115000000D02*
X132430000Y-114430000D01*
X132430000Y-114430000D02*
X130500000Y-114430000D01*
X141500000Y-133735000D02*
X140735000Y-133735000D01*
X140735000Y-133735000D02*
X133000000Y-126000000D01*
X181633332Y-133735000D02*
X161566666Y-133735000D01*
%TD*%
M02*
