M48
; DRILL file {KiCad 9.0.6} date 2025-11-10T21:38:03-0500
; FORMAT={-:-/ absolute / metric / decimal}
; #@! TF.CreationDate,2025-11-10T21:38:03-05:00
; #@! TF.GenerationSoftware,Kicad,Pcbnew,9.0.6
; #@! TF.FileFunction,Plated,1,2,PTH
FMAT,2
METRIC
; #@! TA.AperFunction,Plated,PTH,ViaDrill
T1C0.300
; #@! TA.AperFunction,Plated,PTH,ComponentDrill
T2C0.600
; #@! TA.AperFunction,Plated,PTH,ComponentDrill
T3C0.800
; #@! TA.AperFunction,Plated,PTH,ComponentDrill
T4C0.900
; #@! TA.AperFunction,Plated,PTH,ComponentDrill
T5C1.000
; #@! TA.AperFunction,Plated,PTH,ComponentDrill
T6C2.200
%
G90
G05
T1
X151.533Y-72.265
X151.533Y-92.332
X151.533Y-112.398
X151.533Y-129.0
X151.533Y-132.465
X153.0Y-106.0
X171.6Y-72.265
X171.6Y-92.332
X171.6Y-112.398
X171.6Y-129.0
X171.6Y-132.465
X173.0Y-107.0
X190.0Y-98.5
X190.0Y-117.308
X190.667Y-72.265
X190.667Y-92.332
X190.667Y-112.398
X190.667Y-129.0
X190.667Y-132.465
X192.0Y-72.265
X192.0Y-92.332
X192.0Y-112.398
X192.0Y-129.0
X192.0Y-132.465
X193.0Y-108.0
X210.0Y-97.5
X210.0Y-137.375
T2
X142.875Y-77.175
X142.875Y-97.242
X142.875Y-117.308
X142.875Y-137.375
X144.925Y-79.6
X144.925Y-99.667
X144.925Y-119.733
X144.925Y-139.8
X162.942Y-77.175
X162.942Y-97.242
X162.942Y-117.308
X162.942Y-137.375
X164.992Y-79.6
X164.992Y-99.667
X164.992Y-119.733
X164.992Y-139.8
X183.008Y-77.175
X183.008Y-97.242
X183.008Y-117.308
X183.008Y-137.375
X185.058Y-79.6
X185.058Y-99.667
X185.058Y-119.733
X185.058Y-139.8
X203.075Y-77.175
X203.075Y-97.242
X203.075Y-117.308
X203.075Y-137.375
X205.125Y-79.6
X205.125Y-99.667
X205.125Y-119.733
X205.125Y-139.8
T3
X137.69Y-82.933
X137.69Y-103.0
X137.69Y-123.067
X137.69Y-143.0
X145.31Y-82.933
X145.31Y-103.0
X145.31Y-123.067
X145.31Y-143.0
X157.757Y-82.933
X157.757Y-103.0
X157.757Y-123.067
X157.757Y-143.0
X165.377Y-82.933
X165.377Y-103.0
X165.377Y-123.067
X165.377Y-143.0
X177.823Y-82.933
X177.823Y-103.0
X177.823Y-123.067
X177.823Y-143.0
X185.443Y-82.933
X185.443Y-103.0
X185.443Y-123.067
X185.443Y-143.0
X197.89Y-82.933
X197.89Y-103.0
X197.89Y-123.067
X197.89Y-143.0
X205.51Y-82.933
X205.51Y-103.0
X205.51Y-123.067
X205.51Y-143.0
T4
X141.5Y-70.995
X141.5Y-72.265
X141.5Y-73.535
X141.5Y-74.805
X141.5Y-91.062
X141.5Y-92.332
X141.5Y-93.602
X141.5Y-94.872
X141.5Y-111.128
X141.5Y-112.398
X141.5Y-113.668
X141.5Y-114.938
X141.5Y-131.195
X141.5Y-132.465
X141.5Y-133.735
X141.5Y-135.005
X161.567Y-70.995
X161.567Y-72.265
X161.567Y-73.535
X161.567Y-74.805
X161.567Y-91.062
X161.567Y-92.332
X161.567Y-93.602
X161.567Y-94.872
X161.567Y-111.128
X161.567Y-112.398
X161.567Y-113.668
X161.567Y-114.938
X161.567Y-131.195
X161.567Y-132.465
X161.567Y-133.735
X161.567Y-135.005
X181.633Y-70.995
X181.633Y-72.265
X181.633Y-73.535
X181.633Y-74.805
X181.633Y-91.062
X181.633Y-92.332
X181.633Y-93.602
X181.633Y-94.872
X181.633Y-111.128
X181.633Y-112.398
X181.633Y-113.668
X181.633Y-114.938
X181.633Y-131.195
X181.633Y-132.465
X181.633Y-133.735
X181.633Y-135.005
X201.7Y-70.995
X201.7Y-72.265
X201.7Y-73.535
X201.7Y-74.805
X201.7Y-91.062
X201.7Y-92.332
X201.7Y-93.602
X201.7Y-94.872
X201.7Y-111.128
X201.7Y-112.398
X201.7Y-113.668
X201.7Y-114.938
X201.7Y-131.195
X201.7Y-132.465
X201.7Y-133.735
X201.7Y-135.005
T5
X130.5Y-71.0
X130.5Y-73.54
X130.5Y-89.03
X130.5Y-91.57
X130.5Y-94.11
X130.5Y-96.65
X130.5Y-99.19
X130.5Y-101.73
X130.5Y-104.27
X130.5Y-106.81
X130.5Y-109.35
X130.5Y-111.89
X130.5Y-114.43
X130.5Y-116.97
X130.5Y-135.0
X130.5Y-137.54
X212.7Y-71.0
X212.7Y-73.54
X212.7Y-89.03
X212.7Y-91.57
X212.7Y-94.11
X212.7Y-96.65
X212.7Y-99.19
X212.7Y-101.73
X212.7Y-104.27
X212.7Y-106.81
X212.7Y-109.35
X212.7Y-111.89
X212.7Y-114.43
X212.7Y-116.97
X212.7Y-135.0
X212.7Y-137.54
T6
X131.5Y-62.9
X131.5Y-143.1
X151.533Y-82.933
X151.533Y-123.067
X191.667Y-82.933
X191.667Y-123.067
X211.7Y-62.9
X211.7Y-143.1
M30
